<svg xmlns="http://www.w3.org/2000/svg" width="600" height="1200"><path d="M259,573L147,495L92,744Z" fill="rgb(213,234,228)" stroke="rgb(213,234,228)" stroke-width="1.51"/><path d="M92,744L255,736L259,573Z" fill="rgb(223,225,211)" stroke="rgb(223,225,211)" stroke-width="1.51"/><path d="M147,495L-124,535L92,744Z" fill="rgb(235,244,206)" stroke="rgb(235,244,206)" stroke-width="1.51"/><path d="M-124,535L-152,742L92,744Z" fill="rgb(247,238,187)" stroke="rgb(247,238,187)" stroke-width="1.51"/><path d="M92,744L103,957L255,736Z" fill="rgb(225,204,204)" stroke="rgb(225,204,204)" stroke-width="1.51"/><path d="M-126,835L103,957L92,744Z" fill="rgb(251,212,171)" stroke="rgb(251,212,171)" stroke-width="1.51"/><path d="M-152,742L-126,835L92,744Z" fill="rgb(252,225,174)" stroke="rgb(252,225,174)" stroke-width="1.51"/><path d="M147,495L-94,374L-124,535Z" fill="rgb(235,245,207)" stroke="rgb(235,245,207)" stroke-width="1.51"/><path d="M283,297L34,291L147,495Z" fill="rgb(192,227,250)" stroke="rgb(192,227,250)" stroke-width="1.51"/><path d="M147,495L34,291L-94,374Z" fill="rgb(224,239,221)" stroke="rgb(224,239,221)" stroke-width="1.51"/><path d="M259,573L283,297L147,495Z" fill="rgb(211,234,229)" stroke="rgb(211,234,229)" stroke-width="1.51"/><path d="M488,488L283,297L259,573Z" fill="rgb(227,227,207)" stroke="rgb(227,227,207)" stroke-width="1.51"/><path d="M505,751L488,488L259,573Z" fill="rgb(244,210,176)" stroke="rgb(244,210,176)" stroke-width="1.51"/><path d="M505,751L259,573L255,736Z" fill="rgb(240,220,185)" stroke="rgb(240,220,185)" stroke-width="1.51"/><path d="M471,905L505,751L255,736Z" fill="rgb(250,184,154)" stroke="rgb(250,184,154)" stroke-width="1.51"/><path d="M103,957L365,968L255,736Z" fill="rgb(240,199,180)" stroke="rgb(240,199,180)" stroke-width="1.51"/><path d="M365,968L471,905L255,736Z" fill="rgb(249,187,157)" stroke="rgb(249,187,157)" stroke-width="1.51"/><path d="M-124,535L-341,621L-152,742Z" fill="rgb(245,244,192)" stroke="rgb(245,244,192)" stroke-width="1.51"/><path d="M-94,374L-246,349L-124,535Z" fill="rgb(232,243,211)" stroke="rgb(232,243,211)" stroke-width="1.51"/><path d="M-109,109L-246,349L-94,374Z" fill="rgb(227,241,219)" stroke="rgb(227,241,219)" stroke-width="1.51"/><path d="M673,617L615,564L505,751Z" fill="rgb(246,227,190)" stroke="rgb(246,227,190)" stroke-width="1.51"/><path d="M505,751L615,564L488,488Z" fill="rgb(244,219,184)" stroke="rgb(244,219,184)" stroke-width="1.51"/><path d="M516,172L226,145L283,297Z" fill="rgb(227,227,209)" stroke="rgb(227,227,209)" stroke-width="1.51"/><path d="M-360,581L-341,621L-124,535Z" fill="rgb(241,248,198)" stroke="rgb(241,248,198)" stroke-width="1.51"/><path d="M-152,742L-370,856L-126,835Z" fill="rgb(254,219,170)" stroke="rgb(254,219,170)" stroke-width="1.51"/><path d="M283,297L226,145L34,291Z" fill="rgb(200,229,244)" stroke="rgb(200,229,244)" stroke-width="1.51"/><path d="M34,291L-109,109L-94,374Z" fill="rgb(229,242,217)" stroke="rgb(229,242,217)" stroke-width="1.51"/><path d="M552,305L283,297L488,488Z" fill="rgb(233,196,190)" stroke="rgb(233,196,190)" stroke-width="1.51"/><path d="M103,957L155,1111L365,968Z" fill="rgb(235,207,194)" stroke="rgb(235,207,194)" stroke-width="1.51"/><path d="M365,968L529,1087L471,905Z" fill="rgb(255,168,141)" stroke="rgb(255,168,141)" stroke-width="1.51"/><path d="M-24,1130L155,1111L103,957Z" fill="rgb(242,217,192)" stroke="rgb(242,217,192)" stroke-width="1.51"/><path d="M-246,349L-360,581L-124,535Z" fill="rgb(237,245,205)" stroke="rgb(237,245,205)" stroke-width="1.51"/><path d="M615,564L552,305L488,488Z" fill="rgb(235,218,199)" stroke="rgb(235,218,199)" stroke-width="1.51"/><path d="M155,1111L368,1102L365,968Z" fill="rgb(244,218,184)" stroke="rgb(244,218,184)" stroke-width="1.51"/><path d="M-126,835L-24,1130L103,957Z" fill="rgb(255,215,166)" stroke="rgb(255,215,166)" stroke-width="1.51"/><path d="M155,1111L333,1230L368,1102Z" fill="rgb(242,227,194)" stroke="rgb(242,227,194)" stroke-width="1.51"/><path d="M-298,1045L-24,1130L-126,835Z" fill="rgb(255,218,168)" stroke="rgb(255,218,168)" stroke-width="1.51"/><path d="M615,564L702,292L552,305Z" fill="rgb(231,227,214)" stroke="rgb(231,227,214)" stroke-width="1.51"/><path d="M746,924L673,617L505,751Z" fill="rgb(251,210,175)" stroke="rgb(251,210,175)" stroke-width="1.51"/><path d="M746,924L505,751L471,905Z" fill="rgb(255,191,159)" stroke="rgb(255,191,159)" stroke-width="1.51"/><path d="M226,145L41,84L34,291Z" fill="rgb(216,236,230)" stroke="rgb(216,236,230)" stroke-width="1.51"/><path d="M-341,621L-370,856L-152,742Z" fill="rgb(250,229,179)" stroke="rgb(250,229,179)" stroke-width="1.51"/><path d="M-360,581L-370,856L-341,621Z" fill="rgb(248,237,185)" stroke="rgb(248,237,185)" stroke-width="1.51"/><path d="M41,84L-109,109L34,291Z" fill="rgb(239,247,205)" stroke="rgb(239,247,205)" stroke-width="1.51"/><path d="M552,305L516,172L283,297Z" fill="rgb(234,194,188)" stroke="rgb(234,194,188)" stroke-width="1.51"/><path d="M226,145L55,-39L41,84Z" fill="rgb(227,240,219)" stroke="rgb(227,240,219)" stroke-width="1.51"/><path d="M630,155L516,172L552,305Z" fill="rgb(235,221,204)" stroke="rgb(235,221,204)" stroke-width="1.51"/><path d="M368,1102L529,1087L365,968Z" fill="rgb(254,183,153)" stroke="rgb(254,183,153)" stroke-width="1.51"/><path d="M368,1102L481,1240L529,1087Z" fill="rgb(255,186,156)" stroke="rgb(255,186,156)" stroke-width="1.51"/><path d="M-24,1130L111,1230L155,1111Z" fill="rgb(240,227,201)" stroke="rgb(240,227,201)" stroke-width="1.51"/><path d="M-24,1130L-65,1434L111,1230Z" fill="rgb(254,238,188)" stroke="rgb(254,238,188)" stroke-width="1.51"/><path d="M-370,856L-298,1045L-126,835Z" fill="rgb(255,208,160)" stroke="rgb(255,208,160)" stroke-width="1.51"/><path d="M-109,109L-292,180L-246,349Z" fill="rgb(234,244,211)" stroke="rgb(234,244,211)" stroke-width="1.51"/><path d="M-246,349L-292,180L-360,581Z" fill="rgb(229,242,216)" stroke="rgb(229,242,216)" stroke-width="1.51"/><path d="M111,1230L333,1230L155,1111Z" fill="rgb(232,226,212)" stroke="rgb(232,226,212)" stroke-width="1.51"/><path d="M673,617L702,292L615,564Z" fill="rgb(237,230,205)" stroke="rgb(237,230,205)" stroke-width="1.51"/><path d="M529,1087L658,1044L471,905Z" fill="rgb(255,192,160)" stroke="rgb(255,192,160)" stroke-width="1.51"/><path d="M673,617L900,306L702,292Z" fill="rgb(232,227,212)" stroke="rgb(232,227,212)" stroke-width="1.51"/><path d="M481,1240L658,1044L529,1087Z" fill="rgb(255,205,171)" stroke="rgb(255,205,171)" stroke-width="1.51"/><path d="M-109,109L-301,-134L-292,180Z" fill="rgb(250,252,192)" stroke="rgb(250,252,192)" stroke-width="1.51"/><path d="M41,84L55,-39L-109,109Z" fill="rgb(250,252,192)" stroke="rgb(250,252,192)" stroke-width="1.51"/><path d="M239,-155L55,-39L226,145Z" fill="rgb(228,241,217)" stroke="rgb(228,241,217)" stroke-width="1.51"/><path d="M658,1044L746,924L471,905Z" fill="rgb(255,197,164)" stroke="rgb(255,197,164)" stroke-width="1.51"/><path d="M516,172L433,-52L226,145Z" fill="rgb(244,219,184)" stroke="rgb(244,219,184)" stroke-width="1.51"/><path d="M702,292L630,155L552,305Z" fill="rgb(230,227,215)" stroke="rgb(230,227,215)" stroke-width="1.51"/><path d="M-298,1045L-182,1224L-24,1130Z" fill="rgb(255,232,180)" stroke="rgb(255,232,180)" stroke-width="1.51"/><path d="M280,1448L333,1230L111,1230Z" fill="rgb(237,230,205)" stroke="rgb(237,230,205)" stroke-width="1.51"/><path d="M280,1448L481,1240L333,1230Z" fill="rgb(250,215,180)" stroke="rgb(250,215,180)" stroke-width="1.51"/><path d="M333,1230L481,1240L368,1102Z" fill="rgb(252,206,172)" stroke="rgb(252,206,172)" stroke-width="1.51"/><path d="M630,155L433,-52L516,172Z" fill="rgb(248,219,184)" stroke="rgb(248,219,184)" stroke-width="1.51"/><path d="M746,924L914,671L673,617Z" fill="rgb(250,214,179)" stroke="rgb(250,214,179)" stroke-width="1.51"/><path d="M702,292L893,184L630,155Z" fill="rgb(235,229,211)" stroke="rgb(235,229,211)" stroke-width="1.51"/><path d="M433,-52L239,-155L226,145Z" fill="rgb(243,249,196)" stroke="rgb(243,249,196)" stroke-width="1.51"/><path d="M-182,1224L-65,1434L-24,1130Z" fill="rgb(255,239,186)" stroke="rgb(255,239,186)" stroke-width="1.51"/><path d="M-298,1045L-337,1254L-182,1224Z" fill="rgb(255,236,184)" stroke="rgb(255,236,184)" stroke-width="1.51"/><path d="M-370,856L-337,1254L-298,1045Z" fill="rgb(255,223,172)" stroke="rgb(255,223,172)" stroke-width="1.51"/><path d="M55,-39L-120,-151L-109,109Z" fill="rgb(255,255,186)" stroke="rgb(255,255,186)" stroke-width="1.51"/><path d="M18,-266L-120,-151L55,-39Z" fill="rgb(255,255,186)" stroke="rgb(255,255,186)" stroke-width="1.51"/><path d="M630,155L669,-117L433,-52Z" fill="rgb(255,234,182)" stroke="rgb(255,234,182)" stroke-width="1.51"/><path d="M977,556L900,306L673,617Z" fill="rgb(237,230,205)" stroke="rgb(237,230,205)" stroke-width="1.51"/><path d="M746,924L934,857L914,671Z" fill="rgb(253,203,169)" stroke="rgb(253,203,169)" stroke-width="1.51"/><path d="M914,671L977,556L673,617Z" fill="rgb(244,231,194)" stroke="rgb(244,231,194)" stroke-width="1.51"/><path d="M833,1101L934,857L746,924Z" fill="rgb(255,197,164)" stroke="rgb(255,197,164)" stroke-width="1.51"/><path d="M833,1101L746,924L658,1044Z" fill="rgb(255,204,170)" stroke="rgb(255,204,170)" stroke-width="1.51"/><path d="M-334,1470L-65,1434L-182,1224Z" fill="rgb(255,239,186)" stroke="rgb(255,239,186)" stroke-width="1.51"/><path d="M84,1510L280,1448L111,1230Z" fill="rgb(226,224,219)" stroke="rgb(226,224,219)" stroke-width="1.51"/><path d="M774,1364L833,1101L658,1044Z" fill="rgb(255,220,183)" stroke="rgb(255,220,183)" stroke-width="1.51"/><path d="M934,857L977,556L914,671Z" fill="rgb(248,220,184)" stroke="rgb(248,220,184)" stroke-width="1.51"/><path d="M774,1364L658,1044L481,1240Z" fill="rgb(255,223,186)" stroke="rgb(255,223,186)" stroke-width="1.51"/><path d="M900,306L893,184L702,292Z" fill="rgb(229,226,216)" stroke="rgb(229,226,216)" stroke-width="1.51"/><path d="M433,-52L554,-247L239,-155Z" fill="rgb(254,219,169)" stroke="rgb(254,219,169)" stroke-width="1.51"/><path d="M977,556L893,184L900,306Z" fill="rgb(228,226,217)" stroke="rgb(228,226,217)" stroke-width="1.51"/><path d="M-120,-151L-301,-134L-109,109Z" fill="rgb(255,255,186)" stroke="rgb(255,255,186)" stroke-width="1.51"/><path d="M-292,180L-301,-134L-360,581Z" fill="rgb(235,244,211)" stroke="rgb(235,244,211)" stroke-width="1.51"/><path d="M-65,1434L84,1510L111,1230Z" fill="rgb(247,235,196)" stroke="rgb(247,235,196)" stroke-width="1.51"/><path d="M-120,-151L-264,-252L-301,-134Z" fill="rgb(255,255,186)" stroke="rgb(255,255,186)" stroke-width="1.51"/><path d="M239,-155L18,-266L55,-39Z" fill="rgb(235,244,210)" stroke="rgb(235,244,210)" stroke-width="1.51"/><path d="M84,1510L520,1450L280,1448Z" fill="rgb(243,233,197)" stroke="rgb(243,233,197)" stroke-width="1.51"/><path d="M280,1448L520,1450L481,1240Z" fill="rgb(254,197,165)" stroke="rgb(254,197,165)" stroke-width="1.51"/><path d="M893,184L669,-117L630,155Z" fill="rgb(248,235,195)" stroke="rgb(248,235,195)" stroke-width="1.51"/><path d="M239,-155L222,-347L18,-266Z" fill="rgb(226,240,220)" stroke="rgb(226,240,220)" stroke-width="1.51"/><path d="M669,-117L554,-247L433,-52Z" fill="rgb(255,229,178)" stroke="rgb(255,229,178)" stroke-width="1.51"/><path d="M-56,-335L-264,-252L-120,-151Z" fill="rgb(255,255,186)" stroke="rgb(255,255,186)" stroke-width="1.51"/><path d="M-65,1434L-334,1470L84,1510Z" fill="rgb(255,239,186)" stroke="rgb(255,239,186)" stroke-width="1.51"/><path d="M-337,1254L-334,1470L-182,1224Z" fill="rgb(255,239,186)" stroke="rgb(255,239,186)" stroke-width="1.51"/><path d="M-370,856L-334,1470L-337,1254Z" fill="rgb(255,239,186)" stroke="rgb(255,239,186)" stroke-width="1.51"/><path d="M833,1101L913,1287L934,857Z" fill="rgb(255,210,175)" stroke="rgb(255,210,175)" stroke-width="1.51"/><path d="M520,1450L774,1364L481,1240Z" fill="rgb(255,221,184)" stroke="rgb(255,221,184)" stroke-width="1.51"/><path d="M554,-247L222,-347L239,-155Z" fill="rgb(247,238,187)" stroke="rgb(247,238,187)" stroke-width="1.51"/><path d="M18,-266L-56,-335L-120,-151Z" fill="rgb(255,255,186)" stroke="rgb(255,255,186)" stroke-width="1.51"/><path d="M222,-347L-56,-335L18,-266Z" fill="rgb(243,248,201)" stroke="rgb(243,248,201)" stroke-width="1.51"/><path d="M774,1364L913,1287L833,1101Z" fill="rgb(255,223,186)" stroke="rgb(255,223,186)" stroke-width="1.51"/><path d="M934,857L960,1572L977,556Z" fill="rgb(255,201,167)" stroke="rgb(255,201,167)" stroke-width="1.51"/><path d="M774,1364L960,1572L913,1287Z" fill="rgb(255,223,186)" stroke="rgb(255,223,186)" stroke-width="1.51"/><path d="M520,1450L684,1489L774,1364Z" fill="rgb(255,223,186)" stroke="rgb(255,223,186)" stroke-width="1.51"/><path d="M84,1510L684,1489L520,1450Z" fill="rgb(255,196,164)" stroke="rgb(255,196,164)" stroke-width="1.51"/><path d="M669,-117L677,-381L554,-247Z" fill="rgb(255,239,186)" stroke="rgb(255,239,186)" stroke-width="1.51"/><path d="M554,-247L677,-381L222,-347Z" fill="rgb(255,214,165)" stroke="rgb(255,214,165)" stroke-width="1.51"/><path d="M222,-347L677,-381L-56,-335Z" fill="rgb(241,248,199)" stroke="rgb(241,248,199)" stroke-width="1.51"/><path d="M870,-302L677,-381L669,-117Z" fill="rgb(255,239,186)" stroke="rgb(255,239,186)" stroke-width="1.51"/><path d="M893,184L947,-182L669,-117Z" fill="rgb(255,239,186)" stroke="rgb(255,239,186)" stroke-width="1.51"/><path d="M977,556L947,-182L893,184Z" fill="rgb(237,230,207)" stroke="rgb(237,230,207)" stroke-width="1.51"/><path d="M947,-182L870,-302L669,-117Z" fill="rgb(255,239,186)" stroke="rgb(255,239,186)" stroke-width="1.51"/><path d="M684,1489L960,1572L774,1364Z" fill="rgb(255,223,186)" stroke="rgb(255,223,186)" stroke-width="1.51"/><path d="M913,1287L960,1572L934,857Z" fill="rgb(255,223,186)" stroke="rgb(255,223,186)" stroke-width="1.51"/><path d="M84,1510L960,1572L684,1489Z" fill="rgb(255,218,181)" stroke="rgb(255,218,181)" stroke-width="1.51"/></svg>